<?xml version="1.0" encoding="UTF-8" standalone="no"?>
<svg
   xmlns:dc="http://purl.org/dc/elements/1.1/"
   xmlns:cc="http://creativecommons.org/ns#"
   xmlns:rdf="http://www.w3.org/1999/02/22-rdf-syntax-ns#"
   xmlns:svg="http://www.w3.org/2000/svg"
   xmlns="http://www.w3.org/2000/svg"
   xmlns:sodipodi="http://sodipodi.sourceforge.net/DTD/sodipodi-0.dtd"
   xmlns:inkscape="http://www.inkscape.org/namespaces/inkscape"
   width="420mm"
   height="297mm"
   viewBox="0 0 420 297"
   version="1.1"
   id="svg232"
   inkscape:version="1.0.2-2 (e86c870879, 2021-01-15)"
   sodipodi:docname="neko2.svg">
  <defs
     id="defs226" />
  <sodipodi:namedview
     id="base"
     pagecolor="#ffffff"
     bordercolor="#666666"
     borderopacity="1.0"
     inkscape:pageopacity="0.0"
     inkscape:pageshadow="2"
     inkscape:zoom="0.35"
     inkscape:cx="400"
     inkscape:cy="217.14286"
     inkscape:document-units="mm"
     inkscape:current-layer="layer1"
     inkscape:document-rotation="0"
     showgrid="false"
     inkscape:window-width="1540"
     inkscape:window-height="1040"
     inkscape:window-x="156"
     inkscape:window-y="0"
     inkscape:window-maximized="0" />
  <metadata
     id="metadata229">
    <rdf:RDF>
      <cc:Work
         rdf:about="">
        <dc:format>image/svg+xml</dc:format>
        <dc:type
           rdf:resource="http://purl.org/dc/dcmitype/StillImage" />
        <dc:title></dc:title>
      </cc:Work>
    </rdf:RDF>
  </metadata>
  <g
     inkscape:label="Calque 1"
     inkscape:groupmode="layer"
     id="layer1">
    <g
       id="g60"
       transform="matrix(0.85118547,0,0,0.85118547,-12.115157,-44.707981)">
      <title
         id="title48">Layer 1</title>
      <g
         id="svg_4"
         fill="#e3007a"
         transform="matrix(0.12034909,0,0,-0.11380421,-1544.4155,-1471.0727)">
        <path
           stroke="null"
           id="svg_5"
           d="m 15338.544,-13937.224 c -15.257,-27.237 -7,-40 -6,-74 18.76,-115.857 10.88,-128.191 -7.251,-189.477 -9,-90 13.251,-150.523 79.251,-210.523 l 63.508,-40.238 -50.508,-21.762 c -53,-25 -137,-111 -168,-171 -85,-169 -87,-372 -5,-534 95,-189 282,-269 444,-190 71,35 90,51 139,115 122,161 141,407 45,598 -36,70 -122,162 -174,184 -23.343,9.064 -45.412,13.417 -50.648,17.519 -7.664,6.006 17.205,10.116 28.648,16.481 18.586,10.339 86,67 101,105 24,57 29,116 13,162 -13,37 -13,49 1,98 11,41 13,65 6,93 -9,36 -10,37 -54,34 -24,-1 -64,-12 -89,-24 -45,-21 -99.727,-34.762 -166.011,-3.096 -25.754,19.286 -136.989,56.096 -149.989,35.096 z m 136,-44 c 52,-35 118,-35 191,-1 29,14 68,25 86,25 32,0 32,0 32,-50 0,-28 -6,-65 -13,-83 -11,-26 -11,-37 -1,-62 16,-36 17,-97 4,-146 -14,-48 -72,-114 -121,-136 l -40,-17 52,-23 c 141,-62 225,-189 249,-374 27,-211 -71,-429 -228,-506 -46,-23 -70,-28 -127,-28 -90,1 -148,26 -219,98 -94,94 -136,208 -136,368 0,133 21,205 91,310 44,65 92,104 167,135 l 54,22 -32,7 c -20,4 -53,27 -81,55 -68,68 -85,142 -54,231 5.246,26.048 17.502,36.906 7.251,57.525 -12,34 -15.251,134.475 -4.251,145.475 13,14 83,-2 123,-28 z"
           sodipodi:nodetypes="ccccccccccccsscccsccccccssccccccccccsccccscccc" />
        <path
           stroke="null"
           id="svg_6"
           d="m 14621.786,-14195.224 c -9,-5 -18,-122 -33,-392 -11,-212 -25,-459 -30,-550 -15,-251 -18,-232 31,-228 l 42,3 17,85 c 34,163 89,293 160,373 90,101 180,104 180,6 0,-34 -7,-46 -43,-82 -41,-39 -94,-72 -160,-96 l -29,-11 42,-78 c 48,-87 96,-155 134,-191 32,-30 85,-26 174,14 59,27 87,55 40,41 -13,-4 -43,-10 -66,-13 -43,-6 -45,-5 -100,55 -32,33 -72,87 -89,120 l -33,61 53,30 c 129,73 193,183 156,264 -6,14 -22,30 -36,36 -101,46 -228,-50 -324,-244 -27,-55 -49,-105 -49,-112 0,-6 -5,-15 -11,-19 -9,-5 -10,20 -5,92 14,197 37,463 56,643 11,100 17,187 14,192 -6,11 -74,12 -91,1 z" />
        <path
           stroke="null"
           id="svg_7"
           d="m 13051.786,-14384.224 c -85,-20 -87,-43 -4,-43 96,0 95,1 87,-225 -13,-349 -45,-574 -101,-707 -6,-15 -2,-18 29,-18 53,0 82,32 90,101 12,99 26,412 26,582 0,92 4,167 9,167 5,0 37,-46 72,-102 380,-625 454,-738 478,-738 11,0 23,5 26,10 3,6 10,139 15,298 11,365 31,534 76,640 20,49 18,52 -23,52 -47,0 -59,-8 -73,-45 -15,-38 -29,-322 -30,-567 0,-104 -3,-188 -8,-188 -9,0 -211,323 -367,585 -59,99 -114,188 -122,198 -20,21 -91,22 -180,0 z" />
        <path
           stroke="null"
           id="svg_8"
           d="m 16891.786,-14489.224 c -5,-7 -22,-39 -37,-70 -52,-110 -192,-200 -391,-253 -269,-71 -457,-227 -499,-415 -31,-135 -17,-145 39,-27 31,63 58,100 120,163 94,96 166,134 307,165 144,31 196,48 293,94 114,55 193,125 234,207 35,70 39,108 13,131 -22,20 -66,22 -79,5 z m 75,-42 c 12,-103 -136,-251 -319,-320 -35,-13 -118,-36 -184,-50 -215,-47 -324.612,-128.238 -446.629,-288.381 -50.251,-116.092 -78.136,-159.375 -10.371,35.381 72,152 225,262 457,326 215,60 358,154 412,272 26,56 30,60 58,57 25,-2 31,-8 33,-32 z"
           sodipodi:nodetypes="ccccccccsccccccccccc" />
        <path
           stroke="null"
           id="svg_9"
           d="m 14198.786,-14746.224 c -171,-52 -281,-280 -225,-467 41,-139 186,-206 316,-147 53,24 129,88 129,109 0,20 -4,18 -60,-20 -81,-56 -152,-59 -217,-10 -39,30 -80,113 -89,179 l -6,50 108,17 c 220,36 315,120 258,229 -28,54 -134,84 -214,60 z m 92,-60 c 27,-24 33,-36 33,-71 0,-37 -6,-47 -38,-75 -39,-34 -82,-49 -174,-61 -51,-6 -53,-6 -53,17 0,71 58,175 111,202 50,24 84,21 121,-12 z" />
        <path
           stroke="null"
           id="svg_10"
           d="m 14600.786,-15464.224 c 439,-2 1157,-2 1595,0 439,1 80,2 -797,2 -877,0 -1236,-1 -798,-2 z" />
      </g>
      <text
         font-style="normal"
         font-weight="normal"
         stroke="#ff0000"
         transform="matrix(1.969854,0,0,1.5044212,-299.64332,-145.59482)"
         xml:space="preserve"
         text-anchor="start"
         font-family="Euphoria, sans-serif"
         font-size="24px"
         id="svg_40"
         y="309.35605"
         x="270.43964"
         stroke-width="0"
         fill="#e3007a"
         style="font-style:normal;font-variant:normal;font-weight:normal;font-stretch:normal;font-family:'DejaVu Sans';-inkscape-font-specification:'DejaVu Sans'" />
      <path
         d="m 290.87897,307.25732 c -1.20969,0 -2.01615,0 -2.8226,0 -0.80643,0 -1.61289,0 -2.41935,0.40323 h -0.40323 -0.80642 l -0.40323,0.40323"
         id="svg_42"
         stroke-width="0.001"
         stroke="#e3007a"
         fill="none" />
      <polyline
         stroke-linecap="round"
         id="svg_43"
         points="254.5887192329016,308.4669981894652 254.5887192329016,308.06377335523064 "
         stroke-width="0.001"
         stroke="#e3007a"
         fill="none" />
    </g>
    <text
       xml:space="preserve"
       style="font-style:normal;font-variant:normal;font-weight:normal;font-stretch:normal;font-size:36.5644px;line-height:1.25;font-family:Candara;-inkscape-font-specification:Candara;fill:#e3007a;fill-opacity:1;stroke:none;stroke-width:0.914104"
       x="209.63635"
       y="227.28525"
       id="text78"
       transform="scale(0.97611085,1.0244738)"><tspan
         sodipodi:role="line"
         id="tspan76"
         x="209.63635"
         y="227.28525"
         style="stroke-width:0.914104">ASSOCIATION</tspan></text>
    <rect
       id="rect80"
       width="337.64322"
       height="1.9911634"
       x="71.228966"
       y="197.64848"
       style="stroke-width:0.650104" />
    <rect
       id="rect82"
       width="306.06918"
       height="1.1378037"
       x="102.80302"
       y="201.34204"
       style="stroke-width:0.60188" />
  </g>
</svg>
