<?xml version="1.0" encoding="utf-8"?>
<!-- Generator: Adobe Illustrator 24.2.1, SVG Export Plug-In . SVG Version: 6.00 Build 0)  -->
<svg version="1.1" id="Calque_1" xmlns="http://www.w3.org/2000/svg" xmlns:xlink="http://www.w3.org/1999/xlink" x="0px" y="0px"
	 viewBox="0 0 640 300" style="enable-background:new 0 0 640 300;" xml:space="preserve">
<style type="text/css">
	.st0{fill:#E3007A;}
	.st1{fill:none;stroke:#E3007A;stroke-width:2.412809e-03;stroke-miterlimit:9.6512;}
	.st2{fill:none;stroke:#E3007A;stroke-width:2.412809e-03;stroke-linecap:round;stroke-miterlimit:9.6512;}
	.st3{font-family:'Candara';}
	.st4{font-size:56.1769px;}
</style>
<g id="layer1">
	<g id="g60" transform="matrix(0.85118547,0,0,0.85118547,-12.115157,-44.707981)">
		<g id="svg_4" transform="matrix(0.12034909,0,0,-0.11380421,-1544.4155,-1471.0727)">
			<path id="svg_5" class="st0" d="M16620.11-13500.56c-23.37-40.85-10.72-59.99-9.19-110.98
				c28.74-173.75,16.67-192.25-11.11-284.15c-13.79-134.97,20.3-225.74,121.41-315.72l97.29-60.34l-77.38-32.64
				c-81.2-37.49-209.88-166.46-257.37-256.45c-130.22-253.45-133.28-557.88-7.66-800.83c145.54-283.44,432.02-403.42,680.2-284.94
				c108.77,52.49,137.88,76.48,212.94,172.46c186.9,241.45,216.01,610.37,68.94,896.81c-55.15,104.98-186.9,242.95-266.56,275.94
				c-35.76,13.59-69.57,20.12-77.59,26.27c-11.74,9.01,26.36,15.17,43.89,24.72c28.47,15.5,131.75,100.48,154.73,157.47
				c36.77,85.48,44.43,173.96,19.92,242.95c-19.92,55.49-19.92,73.48,1.53,146.97c16.85,61.49,19.91,97.48,9.19,139.47
				c-13.79,53.99-15.32,55.49-82.73,50.99c-36.77-1.5-98.05-18-136.35-35.99c-68.94-31.49-152.78-52.13-254.32-4.64
				C16810.43-13524.26,16640.02-13469.06,16620.11-13500.56z M16828.46-13566.54c79.66-52.49,180.77-52.49,292.61-1.5
				c44.43,21,104.17,37.49,131.75,37.49c49.02,0,49.02,0,49.02-74.98c0-41.99-9.19-97.48-19.92-124.47
				c-16.85-38.99-16.85-55.49-1.53-92.98c24.51-53.99,26.04-145.47,6.13-218.95c-21.45-71.99-110.3-170.96-185.37-203.96
				l-61.28-25.49l79.66-34.49c216.01-92.98,344.69-283.44,381.46-560.88c41.36-316.43-108.77-643.36-349.29-758.84
				c-70.47-34.49-107.24-41.99-194.56-41.99c-137.88,1.5-226.73,38.99-335.5,146.97c-144.01,140.97-208.35,311.93-208.35,551.88
				c0,199.46,32.17,307.43,139.41,464.9c67.41,97.48,140.94,155.97,255.84,202.46l82.73,32.99l-49.02,10.5
				c-30.64,6-81.19,40.49-124.09,82.48c-104.17,101.98-130.22,212.96-82.73,346.43c8.04,39.06,26.81,55.35,11.11,86.27
				c-18.38,50.99-23.37,201.67-6.51,218.17C16659.94-13503.55,16767.18-13527.55,16828.46-13566.54z"/>
			<path id="svg_6" class="st0" d="M15522.06-13887.47c-13.79-7.5-27.58-182.96-50.55-587.88
				c-16.85-317.93-38.3-688.35-45.96-824.83c-22.98-376.42-27.58-347.93,47.49-341.93l64.34,4.5l26.04,127.47
				c52.09,244.45,136.34,439.41,245.12,559.38c137.88,151.47,275.75,155.97,275.75,9c0-50.99-10.72-68.99-65.87-122.97
				c-62.81-58.49-144.01-107.98-245.12-143.97l-44.43-16.5l64.34-116.97c73.54-130.47,147.07-232.45,205.28-286.44
				c49.02-44.99,130.22-38.99,266.56,21c90.39,40.49,133.28,82.48,61.28,61.49c-19.92-6-65.88-15-101.11-19.5
				c-65.88-9-68.94-7.5-153.2,82.48c-49.02,49.49-110.3,130.47-136.34,179.96l-50.55,91.48l81.19,44.99
				c197.62,109.48,295.67,274.44,238.99,395.92c-9.19,21-33.7,44.99-55.15,53.99c-154.73,68.99-349.29-74.98-496.36-365.92
				c-41.36-82.48-75.07-157.47-75.07-167.96c0-9-7.66-22.5-16.85-28.49c-13.79-7.5-15.32,29.99-7.66,137.97
				c21.45,295.44,56.68,694.35,85.79,964.3c16.85,149.97,26.04,280.44,21.45,287.94
				C15652.28-13872.48,15548.1-13870.98,15522.06-13887.47z"/>
			<path id="svg_7" class="st0" d="M13116.87-14170.91c-130.22-29.99-133.28-64.49-6.13-64.49c147.07,0,145.54,1.5,133.28-337.43
				c-19.92-523.39-68.94-860.82-154.73-1060.28c-9.19-22.5-3.06-26.99,44.43-26.99c81.19,0,125.62,47.99,137.88,151.47
				c18.38,148.47,39.83,617.87,39.83,872.82c0,137.97,6.13,250.45,13.79,250.45c7.66,0,56.68-68.99,110.3-152.97
				c582.15-937.3,695.51-1106.77,732.28-1106.77c16.85,0,35.24,7.5,39.83,15c4.6,9,15.32,208.46,22.98,446.91
				c16.85,547.38,47.49,800.83,116.43,959.8c30.64,73.48,27.58,77.98-35.24,77.98c-72,0-90.39-12-111.83-67.49
				c-22.98-56.99-44.43-482.9-45.96-850.32c0-155.97-4.6-281.94-12.26-281.94c-13.79,0-323.25,484.4-562.23,877.31
				c-90.39,148.47-174.64,281.94-186.9,296.94C13361.98-14139.42,13253.21-14137.92,13116.87-14170.91z"/>
			<path id="svg_8" class="st0" d="M18999.63-14328.38c-7.66-10.5-33.7-58.49-56.68-104.98c-79.66-164.97-294.14-299.94-599-379.42
				c-412.1-106.48-700.11-340.43-764.45-622.37c-47.49-202.46-26.04-217.45,59.75-40.49c47.49,94.48,88.85,149.97,183.84,244.45
				c144.01,143.97,254.31,200.96,470.31,247.45c220.6,46.49,300.27,71.98,448.87,140.97c174.64,82.48,295.67,187.46,358.48,310.43
				c53.62,104.98,59.75,161.97,19.92,196.46C19086.95-14305.88,19019.54-14302.89,18999.63-14328.38z M19114.53-14391.37
				c18.38-154.47-208.35-376.42-488.7-479.9c-53.62-19.5-180.77-53.99-281.88-74.98c-329.37-70.49-497.29-192.32-684.22-432.48
				c-76.98-174.1-119.7-239.01-15.89,53.06c110.3,227.95,344.69,392.92,700.11,488.9c329.37,89.98,548.45,230.95,631.17,407.91
				c39.83,83.98,45.96,89.98,88.85,85.48C19102.27-14346.38,19111.46-14355.37,19114.53-14391.37z"/>
			<path id="svg_9" class="st0" d="M14874.03-14713.8c-261.97-77.98-430.48-419.91-344.69-700.35
				c62.81-208.46,284.95-308.93,484.1-220.45c81.19,35.99,197.62,131.97,197.62,163.47c0,29.99-6.13,26.99-91.92-29.99
				c-124.09-83.98-232.86-88.48-332.44-15c-59.75,44.99-122.56,169.46-136.34,268.44l-9.19,74.98l165.45,25.49
				c337.03,53.99,482.57,179.96,395.25,343.43C15158.98-14722.8,14996.59-14677.81,14874.03-14713.8z M15014.98-14803.78
				c41.36-35.99,50.55-53.99,50.55-106.48c0-55.49-9.19-70.49-58.21-112.48c-59.75-50.99-125.62-73.48-266.56-91.48
				c-78.13-9-81.19-9-81.19,25.5c0,106.48,88.85,262.44,170.05,302.94C14906.21-14749.79,14958.29-14754.29,15014.98-14803.78z"/>
			<path id="svg_10" class="st0" d="M15489.89-15790.57c672.54-3,1772.49-3,2443.49,0c672.53,1.5,122.56,3-1220.98,3
				S14818.88-15789.07,15489.89-15790.57z"/>
		</g>
		<path id="svg_42" class="st1" d="M439.43,353.61c-1.85,0-3.09,0-4.32,0c-1.24,0-2.47,0-3.71,0.6h-0.62h-1.24l-0.62,0.6"/>
		<line id="svg_43" class="st2" x1="383.83" y1="355.42" x2="383.83" y2="354.82"/>
	</g>
	<text transform="matrix(0.9733 0 0 1 314.6606 280.3027)" class="st0 st3 st4">ASSOCIATION</text>
	<rect id="rect80" x="110.3" y="227.52" width="517.26" height="2.99"/>
	<rect id="rect82" x="158.67" y="233.06" width="468.89" height="1.71"/>
</g>
</svg>
